<svg id="scan_icon" data-name="scan icon" xmlns="http://www.w3.org/2000/svg" xmlns:xlink="http://www.w3.org/1999/xlink" width="26.816" height="32.197" viewBox="0 0 26.816 32.197">
  <defs>
    <clipPath id="clip-path">
      <rect id="Rectangle_926" data-name="Rectangle 926" width="26.816" height="32.197" transform="translate(2 1)" fill="none"/>
    </clipPath>
  </defs>
  <g id="Group_1181" data-name="Group 1181" transform="translate(-2 -1)" clip-path="url(#clip-path)">
    <path id="Path_1184" data-name="Path 1184" d="M181.233,280.379c0,.128,0,.244,0,.36q0,3.484,0,6.968c0,.089,0,.179,0,.268a.519.519,0,0,1-.523.534c-.083,0-.166,0-.249,0H170.137c-.646,0-.767-.133-.767-.842q0-3.44,0-6.879c0-.128,0-.256,0-.41h-.812c-.008.1-.025.2-.025.3q0,3.559,0,7.117a1.466,1.466,0,0,0,.84,1.5,1.8,1.8,0,0,0,.7.113q4.58.011,9.161,0h.4c.014.041.02.049.019.057-.1.7-.174.769-.833.769H168.5c-.1,0-.2.006-.3,0a.487.487,0,0,1-.447-.478c-.009-.089-.007-.178-.007-.268q0-4.407-.005-8.815c0-.1,0-.192,0-.308h-.8c-.007.112-.019.217-.019.323q0,4.437,0,8.875a1.518,1.518,0,0,0,.707,1.416,1.394,1.394,0,0,0,.749.168q3.75,0,7.5,0c1.07,0,2.14,0,3.211,0a1.316,1.316,0,0,0,1.318-1.084,4.148,4.148,0,0,0,.034-.634c.072,0,.162-.013.252-.016a1.41,1.41,0,0,0,1.392-1.484c0-.139,0-.278,0-.417q0-3.38,0-6.76v-.377Z" transform="translate(-159.092 -262.94)" fill="#007ee5"/>
    <path id="Path_1185" data-name="Path 1185" d="M2.082,254.876v-.859c.167-.053,22.629-.055,23.02,0,.017.281.006.549,0,.859Z" transform="translate(1.806 -237.992)" fill="#007ee5"/>
    <path id="Path_1186" data-name="Path 1186" d="M168.5,86.083a1.28,1.28,0,0,0-1.619,1.3c0,.069,0,.139,0,.208q0,3.022,0,6.044c0,.116.01.232.016.366h.786c.007-.143.02-.279.02-.414q0-2.932,0-5.865c0-.109,0-.219,0-.327a.5.5,0,0,1,.392-.5c.122-.031.247-.052.4-.085V94h.816c.006-.112.016-.217.016-.323q0-3.87,0-7.741c0-.069,0-.139,0-.208.02-.384.16-.535.519-.536.987,0,1.974,0,2.961,0h5.38c.009.117.02.2.02.289,0,.486.013.973,0,1.459a1.426,1.426,0,0,0,1.405,1.526c.415-.014.83,0,1.245,0h.334V94h.825c.007-.114.019-.219.019-.325,0-1.836,0-3.672,0-5.508a.9.9,0,0,0-.257-.659q-1.4-1.507-2.78-3.029a.731.731,0,0,0-.593-.249c-2.822.005-5.645.013-8.467,0a1.4,1.4,0,0,0-1.451,1.526c0,.107,0,.214,0,.325m12.114,1.471c-.385,0-.75.012-1.114,0a.5.5,0,0,1-.462-.475c-.027-.407-.007-.817-.007-1.157l1.583,1.636" transform="translate(-159.058 -78.482)" fill="#007ee5"/>
    <path id="Path_1189" data-name="Path 1189" d="M39.545,394.517v-.307q0-2.642,0-5.285c0-.075,0-.15.005-.225a.557.557,0,0,1,1.09-.107,1.288,1.288,0,0,1,.036.333q0,2.058,0,4.115v.318c.109.007.2.017.294.017q2.056,0,4.112,0a1.371,1.371,0,0,1,.331.032.562.562,0,0,1-.1,1.1c-.067.006-.134,0-.2,0H39.545" transform="translate(-35.97 -363.029)" fill="#007ee5"/>
    <path id="Path_1190" data-name="Path 1190" d="M432.857,393.389v-.329q0-2.058,0-4.115a1.3,1.3,0,0,1,.04-.355.557.557,0,0,1,1.085.116,1.763,1.763,0,0,1,.005.18q0,2.687,0,5.375v.246a2.017,2.017,0,0,1-.2.021l-5.475,0a.556.556,0,0,1-.565-.358.542.542,0,0,1,.121-.6.58.58,0,0,1,.444-.178c.186,0,.372,0,.559,0h3.988" transform="translate(-406.764 -363.04)" fill="#007ee5"/>
    <path id="Path_1219" data-name="Path 1219" d="M39.545,388.193v.307q0,2.644,0,5.288c0,.075,0,.15.005.225a.545.545,0,0,0,.467.505.53.53,0,0,0,.572-.4,1.35,1.35,0,0,0,.034-.333q0-2.059,0-4.118v-.318c.1-.007.192-.017.281-.017q1.959,0,3.919,0a1.247,1.247,0,0,0,.316-.032.556.556,0,0,0,.394-.592.547.547,0,0,0-.486-.511c-.063-.006-.128,0-.192,0h-5.31" transform="translate(-35.967 -385.763)" fill="#007ee5"/>
    <path id="Path_1220" data-name="Path 1220" d="M432.615,389.344v.33q0,2.059,0,4.118a1.367,1.367,0,0,0,.038.355.528.528,0,0,0,.561.384.545.545,0,0,0,.472-.5c.006-.059.005-.12.005-.18q0-2.689,0-5.378v-.246a1.843,1.843,0,0,0-.193-.021l-5.218,0a.529.529,0,0,0-.538.358.562.562,0,0,0,.115.6.539.539,0,0,0,.423.178c.177,0,.355,0,.532,0h3.8" transform="translate(-406.763 -385.774)" fill="#007ee5"/>
  </g>
</svg>
