<svg id="goal02" xmlns="http://www.w3.org/2000/svg" xmlns:xlink="http://www.w3.org/1999/xlink" width="22" height="30" viewBox="0 0 22 30">
  <defs>
    <clipPath id="clip-path">
      <rect id="Rectangle_722" data-name="Rectangle 722" width="22" height="30" transform="translate(0 0)" fill="none"/>
    </clipPath>
  </defs>
  <g id="Group_830" data-name="Group 830" transform="translate(0 0)" clip-path="url(#clip-path)">
    <path id="Path_958" data-name="Path 958" d="M393.988,1c.087.084.176.167.261.252L402.1,9.1a.737.737,0,0,1,.053.067c-.225,0-.451.007-.676.007-1.741,0-3.483-.006-5.224.007a2.427,2.427,0,0,1-1.389-.345,2.073,2.073,0,0,1-.846-1.29,2.5,2.5,0,0,1-.032-.466q0-2.84,0-5.681c0-.087-.005-.173-.008-.26l.014-.14" transform="translate(-380.437 -1.178)" fill="#a2cdff"/>
    <path id="Path_959" data-name="Path 959" d="M256.533,531.936a.065.065,0,0,1,.03-.013c.086.005.172.015.258.015l7.214,0v1.351h-5.8c-.069,0-.139,0-.208.006l-1.49-.011q0-.676-.006-1.352" transform="translate(-247.778 -513.632)" fill="#efeeef"/>
    <path id="Path_960" data-name="Path 960" d="M256.4,630.361l6.179,0c.428,0,.856,0,1.284,0l.031.028q0,.659,0,1.317l-7.227,0c-.092,0-.185,0-.277.007l0,0q.006-.677.012-1.354" transform="translate(-247.639 -608.642)" fill="#efefef"/>
    <path id="Path_961" data-name="Path 961" d="M256.471,669.158c.092,0,.185-.007.277-.007l7.227,0a.9.9,0,0,1-.176.036q-3.572,0-7.144,0a1.258,1.258,0,0,1-.183-.027" transform="translate(-247.718 -646.082)" fill="#a38dc2"/>
    <path id="Path_962" data-name="Path 962" d="M264.876,531.27l-7.214,0c-.086,0-.172-.01-.258-.015.074-.006.148-.017.223-.018l2.668-.007q2.185,0,4.37.007a1.266,1.266,0,0,1,.212.036" transform="translate(-248.618 -512.959)" fill="#957fb8"/>
    <path id="Path_963" data-name="Path 963" d="M255.549,630.455l-.012,1.354a2.038,2.038,0,0,1-.028-.233q0-.475,0-.949a.8.8,0,0,1,.04-.172" transform="translate(-246.787 -608.735)" fill="#a38dc2"/>
    <path id="Path_964" data-name="Path 964" d="M471.152,472.377l.036-.015-.036.015" transform="translate(-454.929 -456.143)" fill="#7e66a8"/>
    <path id="Path_965" data-name="Path 965" d="M471.273,630.523l-.031-.028.031.028" transform="translate(-455.016 -608.774)" fill="#d9d1e7"/>
    <path id="Path_966" data-name="Path 966" d="M21.919,8.4a1.123,1.123,0,0,0-.034-.2c-.225,0-.451.007-.676.007-1.741,0-3.483-.006-5.224.007A2.427,2.427,0,0,1,14.6,7.871h0a2.072,2.072,0,0,1-.846-1.29,2.5,2.5,0,0,1-.032-.466q0-2.84,0-5.681c0-.087-.005-.173-.008-.26H9.553a.7.7,0,0,1,.2-.066c.286-.007.573,0,.859-.008.066,0,.13-.061.2-.094C10.769,0,10.735,0,10.7,0Q6.393,0,2.085,0a1.815,1.815,0,0,0-.428.041A2.047,2.047,0,0,0,.1,1.458l-.1.35V28.359a2.367,2.367,0,0,0,.41.959,2.037,2.037,0,0,0,1.36.815.272.272,0,0,1,.071.033H20.079c.107-.029.215-.055.321-.087a2.037,2.037,0,0,0,1.476-1.57,1.889,1.889,0,0,0,.042-.443q0-9.834,0-19.667" transform="translate(-0.17 -0.216)" fill="#d6e8fd"/>
    <path id="Path_968" data-name="Path 968" d="M251.156,351.407c-.219,0-.438-.008-.657-.009h-3.444c-.069,0-.138-.006-.207-.009q0-.676,0-1.352l3.3-.006,1.979-.006h2.22v1.361l-.036.015Z" transform="translate(-238.431 -338.063)" fill="#007fff"/>
    <path id="Path_969" data-name="Path 969" d="M91.61,305.9c-.013-.019-.021-.03-.029-.04l-.319-.4c-.084-.1-.167-.208-.251-.312-.034-.041-.048-.042-.091-.013-.011.007-.021.016-.032.024l-.218.176-.294.236c-.055.045-.056.06-.011.117l.111.138.8.993c.091.113.181.226.273.339.043.052.072.052.115,0l.172-.207q.4-.488.8-.977.621-.755,1.244-1.509c.044-.054.036-.089-.01-.125-.126-.1-.248-.2-.371-.3-.053-.044-.106-.088-.159-.13a.061.061,0,0,0-.1.007c-.009.009-.017.02-.026.031l-.505.614-.894,1.086-.209.253" transform="translate(-87.359 -293.533)" fill="#007fff"/>
    <path id="Path_970" data-name="Path 970" d="M251.156,519.878c-.219,0-.438-.008-.657-.009h-3.444c-.069,0-.138-.006-.207-.009q0-.676,0-1.352l3.3-.006,1.979-.006h2.22v1.361l-.036.015Z" transform="translate(-238.431 -500.672)" fill="#007fff"/>
    <path id="Path_971" data-name="Path 971" d="M91.61,474.373c-.013-.019-.021-.03-.029-.04l-.319-.4c-.084-.1-.167-.208-.251-.312-.034-.041-.048-.042-.091-.013-.011.007-.021.016-.032.024l-.218.176-.294.237c-.055.045-.056.06-.011.117l.111.138.8.993c.091.113.181.226.273.339.043.052.072.052.115,0l.172-.207.8-.977,1.244-1.509c.044-.054.036-.089-.01-.125-.126-.1-.248-.2-.371-.3-.053-.044-.106-.088-.159-.13a.06.06,0,0,0-.1.007c-.009.009-.017.02-.026.031l-.505.614-.894,1.086-.209.253" transform="translate(-87.359 -456.143)" fill="#007fff"/>
    <path id="Path_972" data-name="Path 972" d="M251.156,688.35c-.219,0-.438-.008-.657-.009h-3.444c-.069,0-.138-.006-.207-.009q0-.676,0-1.352l3.3-.006,1.979-.007h2.22v1.361l-.036.015-3.157.006" transform="translate(-238.431 -663.282)" fill="#a2cdff"/>
    <path id="Path_973" data-name="Path 973" d="M91.61,642.844c-.013-.019-.021-.03-.029-.04l-.319-.4c-.084-.1-.167-.208-.251-.312-.034-.041-.048-.042-.091-.013-.011.007-.021.016-.032.024l-.218.176-.294.237c-.055.045-.056.06-.011.117l.111.138.8.993c.091.113.181.226.273.339.043.053.072.052.115,0l.172-.207.8-.977q.621-.755,1.244-1.509c.044-.054.036-.089-.01-.125-.126-.1-.248-.2-.371-.3-.053-.044-.106-.088-.159-.13a.06.06,0,0,0-.1.007c-.009.009-.017.02-.026.031l-.505.614-.894,1.086-.209.253" transform="translate(-87.359 -618.753)" fill="#a2cdff"/>
  </g>
</svg>
