<svg id="goal01" xmlns="http://www.w3.org/2000/svg" xmlns:xlink="http://www.w3.org/1999/xlink" width="22" height="30" viewBox="0 0 22 30">
  <defs>
    <clipPath id="clip-path">
      <rect id="Rectangle_722" data-name="Rectangle 722" width="22" height="30" transform="translate(0 0)" fill="none"/>
    </clipPath>
  </defs>
  <g id="Group_830" data-name="Group 830" transform="translate(0 0)" clip-path="url(#clip-path)">
    <path id="Path_958" data-name="Path 958" d="M393.988,1c.088.085.177.168.263.254l7.9,7.9a.733.733,0,0,1,.053.067c-.227,0-.454.007-.681.007-1.752,0-3.5-.006-5.257.007a2.442,2.442,0,0,1-1.4-.347,2.086,2.086,0,0,1-.851-1.3,2.511,2.511,0,0,1-.032-.469q0-2.858,0-5.716c0-.087-.005-.175-.008-.262L393.988,1" transform="translate(-380.351 -1.179)" fill="#a2cdff"/>
    <path id="Path_959" data-name="Path 959" d="M256.533,531.936a.066.066,0,0,1,.031-.013c.087.005.173.015.26.016l7.259,0v1.36h-5.835c-.07,0-.139,0-.209.006l-1.5-.011q0-.681-.006-1.361" transform="translate(-247.722 -513.516)" fill="#efeeef"/>
    <path id="Path_960" data-name="Path 960" d="M256.4,630.361l6.218,0c.431,0,.861,0,1.292,0l.031.028q0,.663,0,1.326l-7.273,0c-.093,0-.186,0-.279.007l0,0,.013-1.362" transform="translate(-247.583 -608.504)" fill="#efefef"/>
    <path id="Path_961" data-name="Path 961" d="M256.471,669.158c.093,0,.186-.007.279-.007l7.273,0a.9.9,0,0,1-.178.036q-3.595,0-7.189,0a1.265,1.265,0,0,1-.185-.027" transform="translate(-247.663 -645.936)" fill="#a38dc2"/>
    <path id="Path_962" data-name="Path 962" d="M264.923,531.27l-7.259,0c-.087,0-.173-.01-.26-.016.075-.006.149-.017.224-.018l2.685-.007q2.2,0,4.4.007a1.263,1.263,0,0,1,.213.037" transform="translate(-248.563 -512.843)" fill="#957fb8"/>
    <path id="Path_963" data-name="Path 963" d="M255.55,630.455q-.006.681-.013,1.362a2.048,2.048,0,0,1-.028-.234q0-.477,0-.955a.8.8,0,0,1,.04-.173" transform="translate(-246.732 -608.598)" fill="#a38dc2"/>
    <path id="Path_964" data-name="Path 964" d="M471.152,472.377l.036-.015-.036.015" transform="translate(-454.827 -456.04)" fill="#7e66a8"/>
    <path id="Path_965" data-name="Path 965" d="M471.273,630.523l-.031-.028.031.028" transform="translate(-454.914 -608.637)" fill="#d9d1e7"/>
    <path id="Path_966" data-name="Path 966" d="M22.057,8.452a1.13,1.13,0,0,0-.035-.2c-.227,0-.454.007-.681.007-1.752,0-3.5-.006-5.257.007a2.442,2.442,0,0,1-1.4-.347h0a2.085,2.085,0,0,1-.851-1.3,2.514,2.514,0,0,1-.032-.469q0-2.858,0-5.716c0-.087-.005-.175-.008-.262H9.613a.706.706,0,0,1,.2-.067c.288-.007.577,0,.865-.008.067,0,.131-.061.2-.094C10.837,0,10.8,0,10.768,0Q6.433,0,2.1,0a1.826,1.826,0,0,0-.43.041A2.06,2.06,0,0,0,.1,1.467L0,1.819V28.538a2.382,2.382,0,0,0,.412.965,2.05,2.05,0,0,0,1.369.82.274.274,0,0,1,.072.034H20.206c.108-.029.217-.055.324-.087a2.05,2.05,0,0,0,1.485-1.58,1.9,1.9,0,0,0,.042-.446q0-9.9,0-19.792" transform="translate(-0.171 -0.217)" fill="#d6e8fd"/>
    <path id="Path_968" data-name="Path 968" d="M251.184,351.415c-.22,0-.441-.008-.661-.009h-3.465c-.069,0-.139-.006-.208-.009q0-.68,0-1.361l3.32-.006,1.992-.007H254.4v1.369l-.036.015Z" transform="translate(-238.378 -337.987)" fill="#007fff"/>
    <path id="Path_969" data-name="Path 969" d="M91.618,305.913c-.014-.019-.021-.03-.029-.04l-.321-.4c-.084-.1-.168-.21-.253-.314-.034-.041-.048-.042-.092-.013-.011.007-.021.016-.032.025l-.22.177-.3.238c-.056.045-.057.061-.011.118l.112.139.805,1c.091.114.182.228.274.341.043.053.072.052.116,0l.173-.208q.4-.492.807-.983l1.252-1.519c.045-.054.036-.089-.01-.126-.126-.1-.249-.2-.374-.307-.053-.044-.106-.088-.16-.131a.061.061,0,0,0-.1.007c-.009.01-.017.02-.026.031l-.508.618-.9,1.093-.211.255" transform="translate(-87.34 -293.468)" fill="#007fff"/>
    <path id="Path_970" data-name="Path 970" d="M251.184,519.886c-.22,0-.441-.008-.661-.009h-3.465c-.069,0-.139-.006-.208-.009q0-.68,0-1.361l3.32-.006,1.992-.007H254.4v1.369l-.036.015Z" transform="translate(-238.378 -500.559)" fill="#a2cdff"/>
    <path id="Path_971" data-name="Path 971" d="M91.618,474.385c-.014-.019-.021-.03-.029-.04l-.321-.4c-.084-.1-.168-.21-.253-.314-.034-.041-.048-.042-.092-.013-.011.008-.021.016-.032.025l-.22.177-.3.238c-.056.045-.057.061-.011.118l.112.139.805,1c.091.114.182.228.274.341.043.053.072.052.116,0l.173-.208q.4-.492.807-.983.625-.76,1.252-1.519c.045-.054.036-.089-.01-.126-.126-.1-.249-.2-.374-.307-.053-.044-.106-.088-.16-.131a.061.061,0,0,0-.1.007c-.009.01-.017.02-.026.031l-.508.618-.9,1.093-.211.255" transform="translate(-87.34 -456.041)" fill="#a2cdff"/>
    <path id="Path_972" data-name="Path 972" d="M251.184,688.359c-.22,0-.441-.009-.661-.009h-3.465c-.069,0-.139-.006-.208-.009q0-.68,0-1.36l3.32-.006,1.992-.007H254.4v1.369l-.036.015-3.177.006" transform="translate(-238.378 -663.133)" fill="#a2cdff"/>
    <path id="Path_973" data-name="Path 973" d="M91.618,642.856c-.014-.019-.021-.03-.029-.04l-.321-.4c-.084-.1-.168-.21-.253-.314-.034-.042-.048-.043-.092-.013-.011.008-.021.016-.032.025l-.22.177-.3.238c-.056.045-.057.061-.011.118l.112.139.805,1c.091.114.182.228.274.341.043.053.072.052.116,0l.173-.208q.4-.492.807-.983.625-.76,1.252-1.519c.045-.054.036-.089-.01-.126-.126-.1-.249-.2-.374-.307-.053-.044-.106-.088-.16-.131a.061.061,0,0,0-.1.007c-.009.01-.017.02-.026.031l-.508.618-.9,1.093-.211.255" transform="translate(-87.34 -618.613)" fill="#a2cdff"/>
  </g>
</svg>
