<svg id="pdf_icon" dataName="pdf icon" xmlns="http://www.w3.org/2000/svg" xmlns:xlink="http://www.w3.org/1999/xlink" width="22.103" height="31.5" viewBox="0 0 22.103 31.5">
  <defs>
    <clipPath id="clip-path">
      <rect id="Rectangle_927" dataName="Rectangle 927" width="22.103" height="31.5" transform="translate(4)" fill="none"/>
    </clipPath>
  </defs>
  <path id="Path_1191" dataName="Path 1191" d="M38.687,55.744l.144.11v-.221Z" transform="translate(-19.652 -27.875)" fill="#fefefe"/>
  <g id="Group_1184" dataName="Group 1184" transform="translate(-4)">
    <g id="Group_1183" dataName="Group 1183" clipPath="url(#clip-path)">
      <path id="Path_1192" dataName="Path 1192" d="M0,35.732H18.357v8.539a1.483,1.483,0,0,1-1.483,1.483H1.483A1.483,1.483,0,0,1,0,44.271Z" transform="translate(5.815 -16.365)" fill="#007fff" stroke="#007efe" strokeWidth="1"/>
      <path id="Path_1193" dataName="Path 1193" d="M1.512,0H13.069l5.288,5.391V16.9H0V1.512A1.512,1.512,0,0,1,1.512,0" transform="translate(5.815 2.466)" fill="#fff" stroke="#007fff" strokeWidth="1"/>
      <path id="Path_1194" dataName="Path 1194" d="M27.489,0c.056.045,3.459,3.53,5.155,5.23.047.051.091.105.133.161a.636.636,0,0,1-.185.056c-1.46,0-2.823,0-4.283,0a.958.958,0,0,1-.944-.97c0-.019,0-.038,0-.058V.434A2.157,2.157,0,0,1,27.374.1c.006-.039.074-.068.114-.1" transform="translate(-8.606 2.466)" fill="#007fff"/>
      <path id="Path_1195" dataName="Path 1195" d="M16.552,43.876V41.609a1.487,1.487,0,0,1,.022-.3.431.431,0,0,1,.435-.386,18.029,18.029,0,0,1,1.9.011,1.35,1.35,0,0,1,1.225,1.321c.026.391.009.786.01,1.178,0,.635-.012,1.27,0,1.9a1.475,1.475,0,0,1-1.409,1.538c-.043,0-.086,0-.128,0-.473-.013-.946,0-1.419,0s-.639-.171-.64-.638q0-1.178,0-2.357m.949-2.018v4.071c.447,0,.876.009,1.305,0a.423.423,0,0,0,.383-.335,1.105,1.105,0,0,0,.044-.327q0-1.374,0-2.75a1.316,1.316,0,0,0-.053-.356.373.373,0,0,0-.346-.294c-.441-.011-.883-.005-1.335-.005Z" transform="translate(-2.907 -19.089)" fill="#f6f0f0"/>
      <path id="Path_1196" dataName="Path 1196" d="M8.366,44.835v1.289a2.238,2.238,0,0,1-.027.36.454.454,0,0,1-.429.391.49.49,0,0,1-.432-.324.873.873,0,0,1-.04-.266V41.507c0-.4.174-.576.569-.579.574,0,1.148-.006,1.722,0a1.229,1.229,0,0,1,1.245,1.061,8.825,8.825,0,0,1,0,1.774,1.234,1.234,0,0,1-1.216,1.061c-.351.017-.7.007-1.057.008-.1,0-.2,0-.335,0m-.005-.914c.457,0,.878.012,1.3,0a.413.413,0,0,0,.437-.468q.01-.573,0-1.146c-.006-.312-.131-.437-.447-.444-.361-.008-.723,0-1.085,0a1.864,1.864,0,0,0-.2.026Z" transform="translate(1.896 -19.101)" fill="#f6f0f1"/>
      <path id="Path_1197" dataName="Path 1197" d="M26.823,44.365v1.968a.5.5,0,0,1-.177.429.444.444,0,0,1-.721-.219.876.876,0,0,1-.034-.237q0-2.39,0-4.778a.945.945,0,0,1,.009-.15.476.476,0,0,1,.488-.443H28.9a.58.58,0,0,1,.447.143.459.459,0,0,1-.259.771,1.178,1.178,0,0,1-.271.016H26.841v1.591h.575c.241,0,.484,0,.726.008a.443.443,0,0,1,.421.4.451.451,0,0,1-.335.48,1.22,1.22,0,0,1-.3.027l-1.106,0" transform="translate(-7.829 -19.104)" fill="#f6f0f0"/>
    </g>
  </g>
</svg>
