<svg xmlns="http://www.w3.org/2000/svg" width="51.77" height="51.75" viewBox="0 0 51.77 51.75">
  <g id="user_top_page" data-name="user top page" transform="translate(0.15 0.15)">
    <path id="Path_1058" data-name="Path 1058" d="M108.559,83.013a25.724,25.724,0,1,1-25.788,25.663,25.766,25.766,0,0,1,25.788-25.663m16.636,41.8a23.217,23.217,0,1,0-34.239-31.34c-8.81,10.149-6.6,24.2.87,31.342a17.223,17.223,0,0,1,11.4-12.9,11.189,11.189,0,0,1-5.161-13.292,11.026,11.026,0,0,1,20.952.193,11.154,11.154,0,0,1-5.24,13.1,17.272,17.272,0,0,1,11.421,12.9m-16.731,7.145c.492,0,.984.014,1.475,0,.335-.013.668-.078,1-.11a22.246,22.246,0,0,0,10.532-3.821c1.76-1.2,1.487-.694,1.1-2.666a14.339,14.339,0,0,0-28.329,1.149.908.908,0,0,0,.458.947,22.953,22.953,0,0,0,13.766,4.505m.009-21.4a8.355,8.355,0,0,0,8.435-8.33,8.4,8.4,0,1,0-8.435,8.33" transform="translate(-82.771 -83.012)" fill="#282828" stroke="#f7f7f7" stroke-width="0.3"/>
  </g>
</svg>
